<svg xmlns="http://www.w3.org/2000/svg" width="45.384" height="50.342" viewBox="0 0 45.384 50.342">
  <g id="Icon_feather-box" data-name="Icon feather-box" transform="translate(1.5 1.565)">
    <path id="Path_145" data-name="Path 145" d="M46.884,35.963V17.126a4.709,4.709,0,0,0-2.355-4.074L28.047,3.634a4.709,4.709,0,0,0-4.709,0L6.855,13.053A4.709,4.709,0,0,0,4.5,17.126V35.963a4.709,4.709,0,0,0,2.355,4.074l16.483,9.419a4.709,4.709,0,0,0,4.709,0l16.483-9.419A4.709,4.709,0,0,0,46.884,35.963Z" transform="translate(-4.5 -3.003)" fill="none" stroke="#061658" stroke-linecap="round" stroke-linejoin="round" stroke-width="3"/>
    <path id="Path_146" data-name="Path 146" d="M4.9,10.44,25.461,22.331,46.017,10.44" transform="translate(-4.269 1.234)" fill="none" stroke="#061658" stroke-linecap="round" stroke-linejoin="round" stroke-width="3"/>
    <path id="Path_147" data-name="Path 147" d="M18,41.735V18" transform="translate(3.192 5.542)" fill="none" stroke="#061658" stroke-linecap="round" stroke-linejoin="round" stroke-width="3"/>
  </g>
</svg>
