<svg xmlns="http://www.w3.org/2000/svg" width="55.725" height="39.008" viewBox="0 0 55.725 39.008">
  <path id="Icon_awesome-user-friends" data-name="Icon awesome-user-friends" d="M16.718,21.754A9.752,9.752,0,1,0,6.966,12,9.747,9.747,0,0,0,16.718,21.754ZM23.4,24.54h-.723a13.464,13.464,0,0,1-11.929,0h-.723A10.033,10.033,0,0,0,0,34.571v2.508a4.18,4.18,0,0,0,4.179,4.179H29.256a4.18,4.18,0,0,0,4.179-4.179V34.571A10.033,10.033,0,0,0,23.4,24.54Zm18.389-2.786A8.359,8.359,0,1,0,33.435,13.4,8.361,8.361,0,0,0,41.794,21.754Zm4.179,2.786h-.331a10.98,10.98,0,0,1-7.7,0h-.331a9.671,9.671,0,0,0-4.85,1.341,12.742,12.742,0,0,1,3.457,8.69v3.344c0,.192-.044.374-.052.557H51.546a4.18,4.18,0,0,0,4.179-4.179,9.747,9.747,0,0,0-9.752-9.752Z" transform="translate(0 -2.25)" fill="#061658"/>
</svg>
