<svg xmlns="http://www.w3.org/2000/svg" width="616.663" height="369.998" viewBox="0 0 616.663 369.998">
  <g id="Image1" transform="translate(-678.337 -268.651)">
    <g id="Group_2" data-name="Group 2" transform="translate(678.337 268.651)">
      <path id="Path_40" data-name="Path 40" d="M559.283,775.581l-16.016-44.846s17.618,8.809,18.419,20.021c0,0-4-56.057-12.012-68.07,0,0,12.813,1.6,27.228,64.066,0,0,2.4-72.074-19.22-92.9,0,0,29.63,24.025,32.033,76.078v45.647Z" transform="translate(-390.149 -406.068)" fill="#f2f2f2"/>
      <path id="Path_41" data-name="Path 41" d="M1064.071,836.054l-3.851-10.783s4.236,2.118,4.429,4.814c0,0-.963-13.479-2.888-16.367,0,0,3.081.385,6.547,15.4,0,0,.578-17.33-4.621-22.336,0,0,7.124,5.777,7.7,18.292v10.975Z" transform="translate(-594.567 -466.541)" fill="#f2f2f2"/>
      <circle id="Ellipse_11" data-name="Ellipse 11" cx="70.407" cy="70.407" r="70.407" transform="translate(327.754 135.957)" fill="#f2f2f2"/>
      <rect id="Rectangle_2" data-name="Rectangle 2" width="166.062" height="92.256" transform="translate(0 5.341)" fill="#f2f2f2"/>
      <rect id="Rectangle_3" data-name="Rectangle 3" width="166.062" height="92.256" transform="translate(225.3 5.341)" fill="#f2f2f2"/>
      <rect id="Rectangle_4" data-name="Rectangle 4" width="166.062" height="92.256" transform="translate(450.601 5.341)" fill="#f2f2f2"/>
      <path id="Path_42" data-name="Path 42" d="M993.506,774.623c-.111-.182-2.739-4.569-3.65-13.679-.835-8.358-.3-22.446,7.008-42.1,13.841-37.228-3.19-67.266-3.364-67.566l.84-.487a74.57,74.57,0,0,1,7.035,19.929,86.945,86.945,0,0,1-3.6,48.462c-13.818,37.165-3.545,54.758-3.44,54.932Z" transform="translate(-566.626 -404.858)" fill="#3f3d56"/>
      <circle id="Ellipse_12" data-name="Ellipse 12" cx="6.312" cy="6.312" r="6.312" transform="translate(415.155 231.613)" fill="#061658"/>
      <circle id="Ellipse_13" data-name="Ellipse 13" cx="6.312" cy="6.312" r="6.312" transform="translate(435.063 254.92)" fill="#3f3d56"/>
      <circle id="Ellipse_14" data-name="Ellipse 14" cx="6.312" cy="6.312" r="6.312" transform="translate(421.468 270.458)" fill="#061658"/>
      <circle id="Ellipse_15" data-name="Ellipse 15" cx="6.312" cy="6.312" r="6.312" transform="translate(437.977 283.568)" fill="#061658"/>
      <circle id="Ellipse_16" data-name="Ellipse 16" cx="6.312" cy="6.312" r="6.312" transform="translate(416.612 303.962)" fill="#3f3d56"/>
      <path id="Path_43" data-name="Path 43" d="M1001.729,838.215s-6.312-15.538,12.624-27.191Z" transform="translate(-571.038 -468.217)" fill="#3f3d56"/>
      <path id="Path_44" data-name="Path 44" d="M973.131,844.819s-2.873-16.523-25.108-16.382Z" transform="translate(-550.201 -475.102)" fill="#3f3d56"/>
      <rect id="Rectangle_5" data-name="Rectangle 5" width="165.577" height="8.255" transform="translate(0.243)" fill="#3f3d56"/>
      <rect id="Rectangle_6" data-name="Rectangle 6" width="166.062" height="8.255" transform="translate(225.543)" fill="#3f3d56"/>
      <rect id="Rectangle_7" data-name="Rectangle 7" width="165.577" height="8.255" transform="translate(450.844)" fill="#3f3d56"/>
      <rect id="Rectangle_8" data-name="Rectangle 8" width="30.105" height="21.365" transform="translate(12.625 21.122)" fill="#fff"/>
      <rect id="Rectangle_9" data-name="Rectangle 9" width="83.031" height="2.428" transform="translate(70.407 21.122)" fill="#fff"/>
      <rect id="Rectangle_10" data-name="Rectangle 10" width="83.031" height="2.428" transform="translate(70.407 30.833)" fill="#fff"/>
      <rect id="Rectangle_11" data-name="Rectangle 11" width="83.031" height="2.428" transform="translate(70.407 40.544)" fill="#fff"/>
      <rect id="Rectangle_12" data-name="Rectangle 12" width="30.105" height="21.365" transform="translate(237.925 21.122)" fill="#fff"/>
      <rect id="Rectangle_13" data-name="Rectangle 13" width="83.031" height="2.428" transform="translate(295.707 21.122)" fill="#fff"/>
      <rect id="Rectangle_14" data-name="Rectangle 14" width="83.031" height="2.428" transform="translate(295.707 30.833)" fill="#fff"/>
      <rect id="Rectangle_15" data-name="Rectangle 15" width="83.031" height="2.428" transform="translate(295.707 40.544)" fill="#fff"/>
      <rect id="Rectangle_16" data-name="Rectangle 16" width="30.105" height="21.365" transform="translate(463.226 21.122)" fill="#fff"/>
      <rect id="Rectangle_17" data-name="Rectangle 17" width="83.031" height="2.428" transform="translate(521.008 21.122)" fill="#fff"/>
      <rect id="Rectangle_18" data-name="Rectangle 18" width="83.031" height="2.428" transform="translate(521.008 30.833)" fill="#fff"/>
      <rect id="Rectangle_19" data-name="Rectangle 19" width="83.031" height="2.428" transform="translate(521.008 40.544)" fill="#fff"/>
      <circle id="Ellipse_17" data-name="Ellipse 17" cx="9.711" cy="9.711" r="9.711" transform="translate(17.966 22.336)" fill="#061658"/>
      <circle id="Ellipse_18" data-name="Ellipse 18" cx="9.711" cy="9.711" r="9.711" transform="translate(468.567 22.336)" fill="#061658"/>
      <rect id="Rectangle_20" data-name="Rectangle 20" width="0.971" height="2.913" transform="translate(76.608 97.598)" fill="#3f3d56"/>
      <path id="Path_45" data-name="Path 45" d="M417.685,530.6h-.971v-5.827h.971Zm0-11.653h-.971v-5.827h.971Zm0-11.653h-.971v-5.827h.971Zm0-11.653h-.971v-5.827h.971Zm0-11.653h-.971v-5.827h.971Zm0-11.654h-.971V466.5h.971Zm0-11.654h-.971V454.85h.971Zm0-11.653h-.971V443.2h.971Zm0-11.654h-.971v-5.827h.971Zm0-11.653h-.971V419.89h.971Z" transform="translate(-340.106 -313.552)" fill="#3f3d56"/>
      <path id="Path_46" data-name="Path 46" d="M130.113,372.045h-3.4v-3.4h.971v2.427h2.428Z" transform="translate(-50.106 -145.773)" fill="#3f3d56"/>
      <path id="Path_47" data-name="Path 47" d="M871.023,617.633H865.17v-.971h5.853Zm-11.707,0h-5.853v-.971h5.853Zm-11.706,0h-5.854v-.971h5.854Zm-11.707,0h-5.852v-.971H835.9Zm-11.706,0h-5.854v-.971H824.2Zm-11.707,0h-5.853v-.971h5.853Zm-11.707,0h-5.854v-.971h5.854Zm-11.707,0h-5.853v-.971h5.853Zm-11.707,0h-5.854v-.971h5.854Zm-11.707,0h-5.853v-.971h5.853Zm-11.707,0H748.1v-.971h5.854Zm-11.707,0H736.4v-.971h5.853Zm-11.707,0h-5.854v-.971h5.854Zm-11.707,0h-5.853v-.971h5.853Zm-11.707,0h-5.854v-.971h5.854Zm-11.707,0h-5.853v-.971h5.853Zm-11.707,0h-5.854v-.971h5.854Zm-11.707,0h-5.853v-.971h5.853Zm-11.707,0h-5.854v-.971H660.3Zm-11.707,0h-5.854v-.971h5.854Zm-11.707,0h-5.854v-.971h5.854Zm-11.707,0h-5.854v-.971h5.854Zm-11.707,0h-5.854v-.971h5.854Zm-11.707,0h-5.854v-.971h5.854Zm-11.707,0h-5.854v-.971h5.854Zm-11.707,0H572.5v-.971h5.854Zm-11.707,0h-5.854v-.971h5.854Zm-11.707,0h-5.854v-.971h5.854Zm-11.707,0H537.38v-.971h5.854Zm-11.707,0h-5.854v-.971h5.854Zm-11.707,0h-5.854v-.971h5.854Zm-11.707,0H502.26v-.971h5.853Zm-11.707,0h-5.854v-.971h5.853Zm-11.707,0h-5.853v-.971H484.7Zm-11.707,0h-5.853v-.971h5.853Zm-11.707,0h-5.853v-.971h5.853Zm-11.707,0h-5.853v-.971h5.853Zm-11.707,0h-5.853v-.971h5.853Z" transform="translate(-346.158 -391.361)" fill="#3f3d56"/>
      <path id="Path_48" data-name="Path 48" d="M881.242,372.045h-3.4v-.972h2.427v-2.427h.971Z" transform="translate(-347.124 -145.773)" fill="#3f3d56"/>
      <path id="Path_49" data-name="Path 49" d="M1172.825,530.6h-.971v-5.827h.971Zm0-11.653h-.971v-5.827h.971Zm0-11.653h-.971v-5.827h.971Zm0-11.653h-.971v-5.827h.971Zm0-11.653h-.971v-5.827h.971Zm0-11.654h-.971V466.5h.971Zm0-11.654h-.971V454.85h.971Zm0-11.653h-.971V443.2h.971Zm0-11.654h-.971v-5.827h.971Zm0-11.653h-.971V419.89h.971Z" transform="translate(-638.71 -313.552)" fill="#3f3d56"/>
      <rect id="Rectangle_21" data-name="Rectangle 21" width="0.971" height="2.913" transform="translate(533.147 97.598)" fill="#3f3d56"/>
      <rect id="Rectangle_22" data-name="Rectangle 22" width="166.062" height="172.86" transform="translate(225.3 196.653)" fill="#3f3d56"/>
      <rect id="Rectangle_23" data-name="Rectangle 23" width="30.105" height="21.365" transform="translate(237.925 219.231)" fill="#fff"/>
      <rect id="Rectangle_24" data-name="Rectangle 24" width="83.031" height="2.428" transform="translate(295.707 219.231)" fill="#fff"/>
      <rect id="Rectangle_25" data-name="Rectangle 25" width="83.031" height="2.428" transform="translate(295.707 228.942)" fill="#fff"/>
      <rect id="Rectangle_26" data-name="Rectangle 26" width="83.031" height="2.428" transform="translate(295.707 238.654)" fill="#fff"/>
      <rect id="Rectangle_27" data-name="Rectangle 27" width="30.105" height="21.365" transform="translate(237.925 296.193)" fill="#fff"/>
      <rect id="Rectangle_28" data-name="Rectangle 28" width="83.031" height="2.428" transform="translate(295.707 296.193)" fill="#fff"/>
      <rect id="Rectangle_29" data-name="Rectangle 29" width="83.031" height="2.428" transform="translate(295.707 305.904)" fill="#fff"/>
      <rect id="Rectangle_30" data-name="Rectangle 30" width="83.031" height="2.428" transform="translate(295.707 315.615)" fill="#fff"/>
      <path id="Path_50" data-name="Path 50" d="M411.912,375.031l-10.3-13.74,2.441-1.831,8.395,11.193,21.4-17.33,1.932,2.361Z" transform="translate(-158.807 -139.714)" fill="#061658"/>
      <path id="Path_51" data-name="Path 51" d="M411.912,501.126l-10.3-13.74,2.441-1.831,8.395,11.193,21.4-17.33,1.932,2.362Z" transform="translate(-158.807 -189.575)" fill="#061658"/>
      <rect id="Rectangle_31" data-name="Rectangle 31" width="599.669" height="0.971" transform="translate(4.37 369.027)" fill="#3f3d56"/>
      <path id="Path_52" data-name="Path 52" d="M834.574,412.313s16.024-6.982,23.55.393S837.973,417.653,834.574,412.313Z" transform="translate(-505.34 -309.373)" fill="#3f3d56"/>
      <path id="Path_53" data-name="Path 53" d="M853.162,353.246c-5.385-9.1-16.038-9.523-16.038-9.523s-10.381-1.328-17.041,12.53c-6.207,12.916-14.774,25.387-1.379,28.411l2.419-7.53,1.5,8.091a52.389,52.389,0,0,0,5.731.1c14.344-.463,28.005.136,27.565-5.012C855.334,373.468,858.343,362,853.162,353.246Z" transform="translate(-496.259 -283.42)" fill="#2f2e41"/>
      <path id="Path_54" data-name="Path 54" d="M882.65,632.323s-6.8,12.625-11.168,12.625-3.884,8.255-2.913,10.2,3.4,6.312-.486,12.625c-1.357,2.2-1.114,4.706-.224,7.027,2.495,6.5,12.2,4.534,11.89-2.426q-.005-.115-.013-.232c-.486-7.769,3.4-19.908,7.283-22.821s7.283-10.682,7.283-10.682Z" transform="translate(-518.213 -397.554)" fill="#ffb8b8"/>
      <path id="Path_55" data-name="Path 55" d="M808.078,627.5s6.8,12.625,11.168,12.625,3.884,8.254,2.913,10.2-3.4,6.312.485,12.624c1.357,2.2,1.114,4.706.224,7.027-2.495,6.5-12.2,4.534-11.89-2.426q.005-.115.012-.232c.486-7.769-3.4-19.908-7.283-22.822s-7.283-10.682-7.283-10.682Z" transform="translate(-490.255 -395.648)" fill="#ffb8b8"/>
      <path id="Path_56" data-name="Path 56" d="M797.058,521.207l-2.913,6.312S751.415,541.6,755.3,558.11s22.821,42.244,25.735,41.273,18.451-3.885,18.937-12.139S788.8,564.422,788.8,564.422l16.024-14.567,23.317-.486,19.9,15.052s-20.879,18.451-11.653,25.735,22.821,12.139,24.763,9.226,23.792-46.128,20.394-50.013-37.874-18.451-37.874-18.451l-9.226-13.11-35.932-1.942Z" transform="translate(-473.894 -351.504)" fill="#2f2e41"/>
      <path id="Path_57" data-name="Path 57" d="M836.755,389.781s2.428,16.023-2.428,17.966,9.711,10.2,9.711,10.2h8.255l5.341-11.168s-4.855-8.74-1.942-16.995S836.755,389.781,836.755,389.781Z" transform="translate(-504.85 -300.195)" fill="#ffb8b8"/>
      <path id="Path_58" data-name="Path 58" d="M836.755,389.781s2.428,16.023-2.428,17.966,9.711,10.2,9.711,10.2h8.255l5.341-11.168s-4.855-8.74-1.942-16.995S836.755,389.781,836.755,389.781Z" transform="translate(-504.85 -300.195)" opacity="0.1"/>
      <path id="Path_59" data-name="Path 59" d="M830.193,414.669s5.341,5.827,6.312,6.8,5.341,6.312,14.567-1.457,10.2,1.457,10.2,1.457v58.267s-7.769-3.4-14.081,0-19.422-.971-19.422-.971l-2.428-60.21Z" transform="translate(-501.688 -311.487)" fill="#fff"/>
      <path id="Path_60" data-name="Path 60" d="M819.469,414.1s-4.538-1.942-8.422,0-17.48,11.654-16.509,16.023,13.6,34.961,4.855,49.527-10.2,18.451-10.2,18.451l21.365-11.168s16.509-10.2,15.052-16.509S819.469,414.1,819.469,414.1Z" transform="translate(-487.396 -310.923)" fill="#061658"/>
      <path id="Path_61" data-name="Path 61" d="M868.194,414.669s10.191.971,10.677,1.942,15.3,5.1,14.324,9.468-14.324,43.458-8.5,50.741,15.538,17.48,12.139,18.451-9.226-1.457-15.052,0-19.423-10.682-17.966-23.793S863.83,418.068,868.194,414.669Z" transform="translate(-516.861 -311.487)" fill="#061658"/>
      <path id="Path_62" data-name="Path 62" d="M830.725,566.483v4.856s-2.428,11.168,5.341,10.682,2.913-13.6,2.913-13.6l-.486-4.37Z" transform="translate(-503.676 -370.559)" fill="#ffb8b8"/>
      <path id="Path_63" data-name="Path 63" d="M865.548,568.874s-5.341,11.168,0,12.139,9.226-6.312,9.226-8.255S865.548,568.874,865.548,568.874Z" transform="translate(-516.649 -372.464)" fill="#ffb8b8"/>
      <ellipse id="Ellipse_19" data-name="Ellipse 19" cx="0.971" cy="1.942" rx="0.971" ry="1.942" transform="translate(354.969 81.089)" fill="#ffb8b8"/>
      <ellipse id="Ellipse_20" data-name="Ellipse 20" cx="0.971" cy="1.942" rx="0.971" ry="1.942" transform="translate(326.321 81.089)" fill="#ffb8b8"/>
      <path id="Path_64" data-name="Path 64" d="M881.369,425.11s12.139,0,11.653,4.856-16.509,88.372-16.509,88.372-6.8-6.312-12.625-4.856Z" transform="translate(-516.932 -315.616)" fill="#061658"/>
      <path id="Path_65" data-name="Path 65" d="M806.957,427.52s-12.139,2.428-12.139,9.711,17.48,77.2,19.908,77.2,11.654-1.457,11.654-3.884S806.957,427.52,806.957,427.52Z" transform="translate(-489.619 -316.569)" fill="#061658"/>
      <path id="Path_66" data-name="Path 66" d="M819.314,451.213l10.925,42.725S825.141,456.554,819.314,451.213Z" transform="translate(-499.306 -325.938)" opacity="0.2"/>
      <path id="Path_67" data-name="Path 67" d="M882.376,441.283l-11.049,55.861S874.858,444.5,882.376,441.283Z" transform="translate(-519.873 -322.011)" opacity="0.2"/>
      <circle id="Ellipse_21" data-name="Ellipse 21" cx="14.081" cy="14.081" r="14.081" transform="translate(327.535 69.192)" fill="#ffb8b8"/>
      <path id="Path_68" data-name="Path 68" d="M568.044,110.44l-10.525-5.513-14.535,2.255-3.007,13.282,7.486-.288,2.091-4.879v4.8l3.454-.133,2-7.769,1.253,8.27,12.279-.25Z" transform="translate(-213.522 -41.491)" fill="#2f2e41"/>
    </g>
  </g>
</svg>
