<svg xmlns="http://www.w3.org/2000/svg" xmlns:xlink="http://www.w3.org/1999/xlink" width="355.925" height="245.705" viewBox="0 0 355.925 245.705">
  <defs>
    <linearGradient id="linear-gradient" y1="0.5" x2="1" y2="0.5" gradientUnits="objectBoundingBox">
      <stop offset="0" stop-color="gray" stop-opacity="0.251"/>
      <stop offset="0.54" stop-color="gray" stop-opacity="0.122"/>
      <stop offset="1" stop-color="gray" stop-opacity="0.102"/>
    </linearGradient>
  </defs>
  <g id="Image2" transform="translate(0 0.006)">
    <path id="Path_71" data-name="Path 71" d="M218.231,80.91c-22.814.031-44.774-6.437-65.778-13.621s-41.847-15.23-64.237-18.639c-14.4-2.191-30.774-1.99-42.03,5.967C35.351,62.271,32.213,74.94,30.7,86.645c-1.138,8.805-1.663,18.047,2.6,26.1,2.961,5.591,8.027,10.2,11.6,15.529,12.465,18.538,4.969,42.219-7.145,61.188-5.68,8.9-12.333,17.43-16.628,26.84s-6.055,20.08-1.676,29.367c4.34,9.205,14.143,15.886,24.664,20.449,21.365,9.284,46.239,11.274,70.445,12.04,53.582,1.7,107.268-1.767,160.811-5.234,19.814-1.282,39.717-2.573,59.122-6.287,10.774-2.06,21.868-5.118,29.507-11.821,9.7-8.509,11.68-22.4,4.624-32.389-11.833-16.75-43.034-19.909-51.519-38.032-4.679-9.977-.644-21.419,5.3-31.037,12.745-20.635,34.684-39.118,35.053-62.2.253-15.849-11.155-31.311-28.2-38.2C311.4,45.747,287.046,47.6,274.533,61.05,261.665,74.9,238.375,80.888,218.231,80.91Z" transform="translate(-16.91 -47.46)" fill="#061658" opacity="0.1"/>
    <path id="Path_72" data-name="Path 72" d="M992.438,689.754s-3.751-2.475-7.468-.714c0,0,1.145,2.2,5.851,2Z" transform="translate(-689.511 -492.79)" fill="#6c63ff"/>
    <path id="Path_73" data-name="Path 73" d="M1005.34,693.25s1.141,4.346-1.721,7.3c0,0-1.721-1.792,0-6.18Z" transform="translate(-701.936 -496.154)" fill="#6c63ff"/>
    <path id="Path_74" data-name="Path 74" d="M1006.645,673.391s-.278-3.7-8.625-2.469a3.982,3.982,0,0,0,2.89,3.513C1003.84,675.564,1005.183,674.612,1006.645,673.391Z" transform="translate(-698.578 -480.468)" fill="#6c63ff"/>
    <path id="Path_75" data-name="Path 75" d="M1022.429,679.5s3.528,1.132.382,8.961a3.993,3.993,0,0,1-2.747-3.635C1019.645,681.71,1020.884,680.635,1022.429,679.5Z" transform="translate(-713.836 -486.601)" fill="#6c63ff"/>
    <path id="Path_76" data-name="Path 76" d="M1025.082,649.788s.479-6.083-8.051-5.46c0,0-.61,5.494,6.547,6.922Z" transform="translate(-711.777 -462.133)" fill="#6c63ff"/>
    <path id="Path_77" data-name="Path 77" d="M1039.836,627.931s-1.169-6.895-9.7-4.841c0,0-.031,5.961,8.3,6.483Z" transform="translate(-720.895 -447.142)" fill="#6c63ff"/>
    <path id="Path_78" data-name="Path 78" d="M1051.718,604.993s-1.959-6.715-10.408-4.706c0,0,2.011,6.04,9.846,5.945Z" transform="translate(-728.656 -431.303)" fill="#6c63ff"/>
    <path id="Path_79" data-name="Path 79" d="M1065.3,581.837s-1.914-6.968-10.072-4.883c0,0,2.722,6.62,9.532,6.061Z" transform="translate(-738.327 -415.082)" fill="#6c63ff"/>
    <path id="Path_80" data-name="Path 80" d="M1075.827,556.535s-1.471-8.521-9.077-6.635c0,0,2.21,7.752,8.518,7.877Z" transform="translate(-746.331 -396.366)" fill="#6c63ff"/>
    <path id="Path_81" data-name="Path 81" d="M1082.7,531.267s-1.767-8.589-9.461-6.1c0,0,3.016,8.119,8.915,7.279Z" transform="translate(-750.84 -379.055)" fill="#6c63ff"/>
    <path id="Path_82" data-name="Path 82" d="M1089.073,502.889s-2.8-8.592-8.753-8.36c0,0,2.866,9.074,8.256,10.072Z" transform="translate(-755.759 -358.082)" fill="#6c63ff"/>
    <path id="Path_83" data-name="Path 83" d="M1094.113,476.424s-3.052-10.34-7.893-9.544c0,0,2.112,7.9,7.722,11.155Z" transform="translate(-759.859 -338.844)" fill="#6c63ff"/>
    <path id="Path_84" data-name="Path 84" d="M1096.45,449.6s-2.863-8.616-7.63-8.961c0,0,1.947,8.479,7.536,11.2Z" transform="translate(-761.665 -320.643)" fill="#6c63ff"/>
    <path id="Path_85" data-name="Path 85" d="M1100.425,423.56s-3.568-8.625-6.715-8.82c0,0,1.55,8.494,6.409,10.237Z" transform="translate(-765.063 -302.648)" fill="#6c63ff"/>
    <path id="Path_86" data-name="Path 86" d="M1104.827,396.025s-2.194-9.367-5.347-10.145c0,0,.43,7.664,5.03,10.847Z" transform="translate(-769.072 -282.596)" fill="#6c63ff"/>
    <path id="Path_87" data-name="Path 87" d="M1109.832,367.407s-2.307-7.468-4.862-8.607c0,0,.5,8.805,4.273,10.432Z" transform="translate(-772.886 -263.781)" fill="#6c63ff"/>
    <path id="Path_88" data-name="Path 88" d="M1119.758,336.027l.464-13.167s-4.776,9.925-.809,15.477Z" transform="translate(-781.826 -238.81)" fill="#6c63ff"/>
    <path id="Path_89" data-name="Path 89" d="M1131.98,299.981s3.44-9.614,4.273-10.151c0,0-6.745,6.238-6.086,14.262Z" transform="translate(-790.361 -215.861)" fill="#6c63ff"/>
    <path id="Path_90" data-name="Path 90" d="M1041.052,662.126s6.049-.79,5.869,7.758c0,0-5.466.891-7.252-6.18Z" transform="translate(-727.516 -474.516)" fill="#6c63ff"/>
    <path id="Path_91" data-name="Path 91" d="M1059.675,639.06s6.989-.021,6.409,8.729c0,0-5.869,1.05-7.8-7.075Z" transform="translate(-740.446 -458.503)" fill="#6c63ff"/>
    <path id="Path_92" data-name="Path 92" d="M1074.352,617.119s6.345-2.976,10.4,4.706c0,0-5.86,2.478-10.966-3.464Z" transform="translate(-751.222 -442.865)" fill="#6c63ff"/>
    <path id="Path_93" data-name="Path 93" d="M1087.467,592.541s6.5-3.165,10.313,4.337c0,0-6.77,2.332-10.85-3.15Z" transform="translate(-760.352 -425.722)" fill="#6c63ff"/>
    <path id="Path_94" data-name="Path 94" d="M1095.567,566.872s6.254-5.973,11.244.067c0,0-6.388,4.917-11.531,1.264Z" transform="translate(-766.153 -406.517)" fill="#6c63ff"/>
    <path id="Path_95" data-name="Path 95" d="M1102.566,539.529s6.29-6.1,11.241.281c0,0-7.059,5.015-11.467,1Z" transform="translate(-771.059 -387.522)" fill="#6c63ff"/>
    <path id="Path_96" data-name="Path 96" d="M1106.93,507.073s4.847-7.63,10.554-5.927c0,0-5.03,8.079-10.5,7.719Z" transform="translate(-774.248 -362.509)" fill="#6c63ff"/>
    <path id="Path_97" data-name="Path 97" d="M1111.325,479.58s4.883-9.608,9.5-7.935c0,0-3.522,7.386-9.629,9.556Z" transform="translate(-777.215 -342.049)" fill="#6c63ff"/>
    <path id="Path_98" data-name="Path 98" d="M1111.608,453.07s5.021-7.563,9.724-6.638c0,0-4.105,7.67-10.212,8.827Z" transform="translate(-777.159 -324.612)" fill="#6c63ff"/>
    <path id="Path_99" data-name="Path 99" d="M1114,423.636s3.891-8.488,7.053-8.546c0,0-1.868,8.427-6.791,9.986Z" transform="translate(-779.16 -302.891)" fill="#6c63ff"/>
    <path id="Path_100" data-name="Path 100" d="M1116.5,398.913s4.325-8.595,7.575-8.613c0,0-2.213,7.349-7.432,9.367Z" transform="translate(-780.897 -285.667)" fill="#6c63ff"/>
    <path id="Path_101" data-name="Path 101" d="M1118.63,370.737s3.235-7.111,5.915-7.917c0,0-1.618,8.668-5.558,9.8Z" transform="translate(-782.377 -266.574)" fill="#6c63ff"/>
    <path id="Path_102" data-name="Path 102" d="M1122.986,340.075l7.23-11.015s-1.853,10.865-8.286,13.124Z" transform="translate(-784.67 -243.118)" fill="#6c63ff"/>
    <path id="Path_103" data-name="Path 103" d="M1133.681,310.666s8.4-5.8,8.708-6.736c0,0-4.273,8.122-12.208,9.556Z" transform="translate(-790.402 -225.658)" fill="#6c63ff"/>
    <path id="Path_104" data-name="Path 104" d="M1142.772,296.356s9.648-9.275,12.111-9.266a15.749,15.749,0,0,0-12.343,8.772Z" transform="translate(-798.99 -213.957)" fill="#6c63ff"/>
    <path id="Path_105" data-name="Path 105" d="M1118.94,338.854l.351.046c1.813-14.189,4.456-22.585,7.441-23.614l-.116-.336C1123.451,316.049,1120.79,324.317,1118.94,338.854Z" transform="translate(-782.592 -233.314)" fill="#444053"/>
    <path id="Path_106" data-name="Path 106" d="M1110.2,424.806l.531.043c.113-1.325.2-2.68.256-4.032.507-11.744,1.291-22.53,2.323-30.615l-.305-.382c-1.035,8.1-2.042,19.213-2.548,30.975C1110.4,422.138,1110.313,423.487,1110.2,424.806Z" transform="translate(-776.52 -285.333)" fill="#444053"/>
    <path id="Path_107" data-name="Path 107" d="M976.347,566.4a69.13,69.13,0,0,0,19.143-14.171,76.979,76.979,0,0,0,13.994-19.838c4.487-9.135,7.221-20.36,8.137-31.265l-.552.259c-2.06,24.478-13.2,41.2-22.063,50.313a68.409,68.409,0,0,1-18.944,14.039Z" transform="translate(-683.32 -362.671)" fill="#444053"/>
    <path id="Path_108" data-name="Path 108" d="M382.75,132.69H89.483A2.613,2.613,0,0,0,86.87,135.3v7.612H385.363V135.3A2.613,2.613,0,0,0,382.75,132.69Z" transform="translate(-65.518 -106.681)" fill="#3f3d56"/>
    <path id="Path_109" data-name="Path 109" d="M86.87,166.19V337.485a5.268,5.268,0,0,0,5.268,5.268H380.095a5.268,5.268,0,0,0,5.268-5.268V166.19Z" transform="translate(-65.518 -129.957)" fill="#fff"/>
    <circle id="Ellipse_22" data-name="Ellipse 22" cx="1.221" cy="1.221" r="1.221" transform="translate(24.859 29.824)" fill="#fa5959" opacity="0.8"/>
    <circle id="Ellipse_23" data-name="Ellipse 23" cx="1.221" cy="1.221" r="1.221" transform="translate(28.216 29.824)" fill="#fed253" opacity="0.8"/>
    <circle id="Ellipse_24" data-name="Ellipse 24" cx="1.221" cy="1.221" r="1.221" transform="translate(31.574 29.824)" fill="#8ccf4d" opacity="0.8"/>
    <rect id="Rectangle_34" data-name="Rectangle 34" width="239.893" height="105.486" transform="translate(49.099 64.794)" opacity="0.05"/>
    <rect id="Rectangle_35" data-name="Rectangle 35" width="236.23" height="103.16" transform="translate(50.93 65.594)" fill="#3f3d56"/>
    <path id="Path_110" data-name="Path 110" d="M341.281,349.38a23.5,23.5,0,1,0,23.5,23.5A23.5,23.5,0,0,0,341.281,349.38Zm4.215,24.066v11.128h-8.308V373.446a6.882,6.882,0,1,1,8.308,0Z" transform="translate(-225.952 -257.236)" fill="rgba(11,40,159,0.43)"/>
    <path id="Path_111" data-name="Path 111" d="M341.281,349.38a23.5,23.5,0,1,0,23.5,23.5A23.5,23.5,0,0,0,341.281,349.38Zm4.215,24.066v11.128h-8.308V373.446a6.882,6.882,0,1,1,8.308,0Z" transform="translate(-225.952 -257.236)" fill="#061658" opacity="0.05"/>
    <path id="Path_112" data-name="Path 112" d="M326,327.38A30.216,30.216,0,1,0,356.211,357.6,30.216,30.216,0,0,0,326,327.38Zm5.417,30.942v14.305H320.731V358.322a8.851,8.851,0,1,1,10.682,0Z" transform="translate(-210.667 -241.95)" fill="#061658"/>
    <rect id="Rectangle_36" data-name="Rectangle 36" width="97.666" height="10.377" transform="translate(158.058 111.68)" fill="#fff"/>
    <rect id="Rectangle_37" data-name="Rectangle 37" width="21.059" height="10.377" transform="translate(234.665 130.603)" fill="#061658"/>
    <path id="Path_113" data-name="Path 113" d="M556.206,425.016h-1.767l1.572-1.569a.156.156,0,0,0,0-.217.153.153,0,0,0-.217,0l-1.572,1.572v-1.77a.153.153,0,0,0-.153-.153.156.156,0,0,0-.153.153v1.77l-1.569-1.581a.153.153,0,0,0-.217,0,.156.156,0,0,0,0,.217l1.572,1.569h-1.77a.156.156,0,0,0-.153.153.153.153,0,0,0,.153.153h1.77l-1.572,1.572a.156.156,0,0,0,0,.217.159.159,0,0,0,.217,0l1.569-1.572V427.3a.153.153,0,1,0,.305,0v-1.767l1.572,1.572a.159.159,0,0,0,.217,0,.156.156,0,0,0,0-.217l-1.572-1.572h1.767a.148.148,0,1,0,0-.3Z" transform="translate(-388.534 -308.303)" fill="#6c63ff"/>
    <path id="Path_114" data-name="Path 114" d="M577.206,425.016h-1.767l1.572-1.569a.156.156,0,0,0,0-.217.153.153,0,0,0-.217,0l-1.572,1.572v-1.77a.153.153,0,0,0-.153-.153.156.156,0,0,0-.153.153v1.77l-1.569-1.581a.153.153,0,0,0-.217,0,.156.156,0,0,0,0,.217l1.572,1.569h-1.77a.156.156,0,0,0-.153.153.153.153,0,0,0,.153.153h1.77l-1.572,1.572a.156.156,0,0,0,0,.217.159.159,0,0,0,.217,0l1.569-1.572V427.3a.153.153,0,1,0,.305,0v-1.767l1.572,1.572a.159.159,0,0,0,.217,0,.156.156,0,0,0,0-.217l-1.572-1.572h1.767a.148.148,0,1,0,0-.3Z" transform="translate(-403.124 -308.303)" fill="#6c63ff"/>
    <path id="Path_115" data-name="Path 115" d="M598.206,425.016h-1.767l1.572-1.569a.156.156,0,0,0,0-.217.153.153,0,0,0-.217,0l-1.572,1.572v-1.77a.153.153,0,0,0-.153-.153.156.156,0,0,0-.153.153v1.77l-1.569-1.581a.153.153,0,0,0-.217,0,.156.156,0,0,0,0,.217l1.572,1.569h-1.77a.156.156,0,0,0-.153.153.153.153,0,0,0,.153.153h1.77l-1.572,1.572a.156.156,0,0,0,0,.217.159.159,0,0,0,.217,0l1.569-1.572V427.3a.153.153,0,1,0,.305,0v-1.767l1.572,1.572a.159.159,0,0,0,.217,0,.156.156,0,0,0,0-.217l-1.572-1.572h1.767a.148.148,0,1,0,0-.3Z" transform="translate(-417.715 -308.303)" fill="#6c63ff"/>
    <path id="Path_116" data-name="Path 116" d="M619.206,425.016h-1.767l1.572-1.569a.156.156,0,0,0,0-.217.153.153,0,0,0-.217,0l-1.572,1.572v-1.77a.153.153,0,0,0-.153-.153.156.156,0,0,0-.153.153v1.77l-1.569-1.581a.153.153,0,0,0-.217,0,.156.156,0,0,0,0,.217l1.572,1.569h-1.77a.156.156,0,0,0-.153.153.153.153,0,0,0,.153.153h1.77l-1.572,1.572a.156.156,0,0,0,0,.217.159.159,0,0,0,.217,0l1.569-1.572V427.3a.153.153,0,1,0,.305,0v-1.767l1.572,1.572a.159.159,0,0,0,.217,0,.156.156,0,0,0,0-.217l-1.572-1.572h1.767a.148.148,0,1,0,0-.3Z" transform="translate(-432.306 -308.303)" fill="#6c63ff"/>
    <path id="Path_117" data-name="Path 117" d="M640.206,425.016h-1.767l1.572-1.569a.156.156,0,0,0,0-.217.153.153,0,0,0-.217,0l-1.572,1.572v-1.77a.153.153,0,0,0-.153-.153.156.156,0,0,0-.153.153v1.77l-1.569-1.581a.153.153,0,0,0-.217,0,.156.156,0,0,0,0,.217l1.572,1.569h-1.77a.156.156,0,0,0-.153.153.153.153,0,0,0,.153.153h1.77l-1.572,1.572a.156.156,0,0,0,0,.217.159.159,0,0,0,.217,0l1.569-1.572V427.3a.153.153,0,1,0,.305,0v-1.767l1.572,1.572a.159.159,0,0,0,.217,0,.156.156,0,0,0,0-.217l-1.572-1.572h1.767a.148.148,0,1,0,0-.3Z" transform="translate(-446.896 -308.303)" fill="#6c63ff"/>
    <path id="Path_118" data-name="Path 118" d="M661.206,425.016h-1.767l1.572-1.569a.156.156,0,0,0,0-.217.153.153,0,0,0-.217,0l-1.572,1.572v-1.77a.153.153,0,0,0-.153-.153.156.156,0,0,0-.153.153v1.77l-1.569-1.581a.153.153,0,0,0-.217,0,.156.156,0,0,0,0,.217l1.572,1.569h-1.77a.156.156,0,0,0-.153.153.153.153,0,0,0,.153.153h1.77l-1.572,1.572a.156.156,0,0,0,0,.217.159.159,0,0,0,.217,0l1.569-1.572V427.3a.153.153,0,1,0,.305,0v-1.767l1.572,1.572a.159.159,0,0,0,.217,0,.156.156,0,0,0,0-.217l-1.572-1.572h1.767a.148.148,0,1,0,0-.3Z" transform="translate(-461.487 -308.303)" fill="#6c63ff"/>
    <path id="Path_119" data-name="Path 119" d="M682.206,425.016h-1.767l1.572-1.569a.156.156,0,0,0,0-.217.153.153,0,0,0-.217,0l-1.572,1.572v-1.77a.153.153,0,0,0-.153-.153.156.156,0,0,0-.153.153v1.77l-1.569-1.581a.153.153,0,0,0-.217,0,.156.156,0,0,0,0,.217l1.572,1.569h-1.77a.156.156,0,0,0-.153.153.153.153,0,0,0,.153.153h1.77l-1.572,1.572a.156.156,0,0,0,0,.217.159.159,0,0,0,.217,0l1.569-1.572V427.3a.153.153,0,1,0,.305,0v-1.767l1.572,1.572a.159.159,0,0,0,.217,0,.156.156,0,0,0,0-.217l-1.572-1.572h1.767a.148.148,0,1,0,0-.3Z" transform="translate(-476.078 -308.303)" fill="#6c63ff"/>
    <path id="Path_120" data-name="Path 120" d="M703.206,425.016h-1.767l1.572-1.569a.156.156,0,0,0,0-.217.153.153,0,0,0-.217,0l-1.572,1.572v-1.77a.153.153,0,0,0-.153-.153.156.156,0,0,0-.153.153v1.77l-1.569-1.581a.153.153,0,0,0-.217,0,.156.156,0,0,0,0,.217l1.572,1.569h-1.77a.156.156,0,0,0-.153.153.153.153,0,0,0,.153.153h1.77l-1.572,1.572a.156.156,0,0,0,0,.217.159.159,0,0,0,.217,0l1.569-1.572V427.3a.153.153,0,1,0,.305,0v-1.767l1.572,1.572a.159.159,0,0,0,.217,0,.156.156,0,0,0,0-.217l-1.572-1.572h1.767a.148.148,0,1,0,0-.3Z" transform="translate(-490.668 -308.303)" fill="#6c63ff"/>
    <path id="Path_121" data-name="Path 121" d="M724.206,425.016h-1.767l1.572-1.569a.156.156,0,0,0,0-.217.153.153,0,0,0-.217,0l-1.572,1.572v-1.77a.153.153,0,0,0-.153-.153.156.156,0,0,0-.153.153v1.77l-1.569-1.581a.153.153,0,0,0-.217,0,.156.156,0,0,0,0,.217l1.572,1.569h-1.77a.156.156,0,0,0-.153.153.153.153,0,0,0,.153.153h1.77l-1.572,1.572a.156.156,0,0,0,0,.217.159.159,0,0,0,.217,0l1.569-1.572V427.3a.153.153,0,1,0,.305,0v-1.767l1.572,1.572a.159.159,0,0,0,.217,0,.156.156,0,0,0,0-.217l-1.572-1.572h1.767a.148.148,0,1,0,0-.3Z" transform="translate(-505.259 -308.303)" fill="#6c63ff"/>
    <path id="Path_122" data-name="Path 122" d="M745.206,425.016h-1.767l1.572-1.569a.156.156,0,0,0,0-.217.153.153,0,0,0-.217,0l-1.572,1.572v-1.77a.153.153,0,0,0-.153-.153.156.156,0,0,0-.153.153v1.77l-1.569-1.581a.153.153,0,0,0-.217,0,.156.156,0,0,0,0,.217l1.572,1.569h-1.77a.156.156,0,0,0-.153.153.153.153,0,0,0,.153.153h1.77l-1.572,1.572a.156.156,0,0,0,0,.217.159.159,0,0,0,.217,0l1.569-1.572V427.3a.153.153,0,1,0,.305,0v-1.767l1.572,1.572a.159.159,0,0,0,.217,0,.156.156,0,0,0,0-.217l-1.572-1.572h1.767a.148.148,0,1,0,0-.3Z" transform="translate(-519.85 -308.303)" fill="#6c63ff"/>
    <path id="Path_123" data-name="Path 123" d="M766.206,425.016h-1.767l1.572-1.569a.156.156,0,0,0,0-.217.153.153,0,0,0-.217,0l-1.572,1.572v-1.77a.153.153,0,0,0-.153-.153.156.156,0,0,0-.153.153v1.77l-1.569-1.581a.153.153,0,0,0-.217,0,.156.156,0,0,0,0,.217l1.572,1.569h-1.77a.156.156,0,0,0-.153.153.153.153,0,0,0,.153.153h1.77l-1.572,1.572a.156.156,0,0,0,0,.217.159.159,0,0,0,.217,0l1.569-1.572V427.3a.153.153,0,1,0,.305,0v-1.767l1.572,1.572a.159.159,0,0,0,.217,0,.156.156,0,0,0,0-.217l-1.572-1.572h1.767a.148.148,0,1,0,0-.3Z" transform="translate(-534.44 -308.303)" fill="#6c63ff"/>
    <path id="Path_124" data-name="Path 124" d="M831.783,493.045a5.466,5.466,0,0,0-.137-1.1,3.557,3.557,0,0,0-1.914-2.591,16.067,16.067,0,0,1-3.034-1.282c-.183-3.272.568-6.62-.25-9.791a24.906,24.906,0,0,1-.943-3.458c-.168-1.477.235-3.052-.354-4.413a4.356,4.356,0,0,0-2.579-2.228,13.741,13.741,0,0,0-3.44-.61c-1.465-.119-6.208-.681-7.862.629h0a1.729,1.729,0,0,0-.305.305h0a1.227,1.227,0,0,0-.1.159l-.015.024a1.239,1.239,0,0,0-.082.2h0a1.546,1.546,0,0,0-.052.229v.549c.021.275.061.549.061.821a1.765,1.765,0,0,1-.037.4,2.821,2.821,0,0,1-.507.989h0l-.055.079c-.034.049-.067.095-.1.143s-.055.085-.079.128-.049.07-.07.11a1.486,1.486,0,0,0-.079.156c0,.031-.034.058-.046.089a1.51,1.51,0,0,0-.092.256,1.7,1.7,0,0,0-.018.812,3.023,3.023,0,0,0,.418.961c.076.125.159.247.244.369l.214.29a6.585,6.585,0,0,0-.064.855,6.314,6.314,0,0,0,2.41,4.962,18.7,18.7,0,0,1-.039,3.874c-.027.269-.061.54-.1.809s-.064.446-.1.668a3.1,3.1,0,0,1-1.334-.1,6.3,6.3,0,0,0-.61-.235c-.888-.223-1.795.662-2.674.394a.359.359,0,0,1-.04.122,1.2,1.2,0,0,0-.61-.18,2.227,2.227,0,0,1-1.325-.76l-1.163-1.1a1.286,1.286,0,0,1-.2-.226,1.585,1.585,0,0,1-.14-.375,4.326,4.326,0,0,0-1.126-1.615.763.763,0,0,0-.333-.241.514.514,0,0,0-.153,0,1.328,1.328,0,0,0-.1-.122,2.869,2.869,0,0,0-.253-.256c-.555-.513-.61-.952-1.093-1.526a14.671,14.671,0,0,1-1.141-1.724c-.04-.32-.095-.65-.162-.983a12.647,12.647,0,0,0-.668-2.228l-.61-1.352-.07.07c-.443-.659-.916-1.019-1.34-.934-.711.146-1.062,1.526-.949,3.33l.244,1.831a.564.564,0,0,0,.034.137,3.382,3.382,0,0,0-.067.659c0,.256.238.446.363.674a1.908,1.908,0,0,1,.305,1.041c-.015.131-.055.256-.061.385a1.48,1.48,0,0,0,.287.794l1.526,2.564.305.537.018.024a1.3,1.3,0,0,0,.409.47,5.591,5.591,0,0,0,.5,1.853c.052.116.11.226.171.336a10.794,10.794,0,0,0,1.441,1.871l.726.815c.717.8,1.435,1.6,2.213,2.341a2.964,2.964,0,0,0,.989.693,1.12,1.12,0,0,0,1.111-.162V494.4a.638.638,0,0,1,.482,1,25.167,25.167,0,0,1-2.259,4.78,10.174,10.174,0,0,1,1.892,1.444,8.514,8.514,0,0,1,.986,1.334c.027.226.049.449.061.671.226,3.638-1.181,7.249-2.442,10.716a8.348,8.348,0,0,0-.729,3.034,5.956,5.956,0,0,0-.684.491,4.525,4.525,0,0,1,.125,1.935,3.427,3.427,0,0,1-.253,1.221,8.581,8.581,0,0,1-.439.784,11.645,11.645,0,0,0-1.123,4.645c-.095.961.278,2.136-.159,3a12.261,12.261,0,0,0-1.526,4.694,4.7,4.7,0,0,1-.14,1.1c-.095.305-.263.565-.348.864a3.7,3.7,0,0,0-.061,1.221,11.682,11.682,0,0,1-.641,4.306,5.855,5.855,0,0,0-.5,3.376,4.758,4.758,0,0,0-1.291,2.835,4.468,4.468,0,0,1-.1.809,3.934,3.934,0,0,1-.366.778,6.812,6.812,0,0,0-.83,3.663,10.188,10.188,0,0,0-1.645,4.3c-.272,1.523-.391,3.073-.739,4.578a42.68,42.68,0,0,0-1.468,6.04,4.255,4.255,0,0,0-1.605,3.012,13.408,13.408,0,0,1-.705,3.44c-.25.555-.61,1.053-.848,1.621a7.439,7.439,0,0,0-.366,1.395,5.442,5.442,0,0,0-.095,2.289,3.451,3.451,0,0,1-.894.681c.049-.189.089-.379.122-.571-.787.714-2.216.464-2.845,1.322a1.288,1.288,0,0,0,.305,1.767,2.441,2.441,0,0,0,.632.272,10.1,10.1,0,0,0,4.664.72,1.391,1.391,0,0,0,.528-.168,1.7,1.7,0,0,0,.491-.568c.235-.372.47-.745.7-1.117a14.49,14.49,0,0,0,1.712.4c.058.488.1.977.122,1.465.305.061.714.079.858-.2a.742.742,0,0,0,.052-.339c0-.217.031-.5.049-.8h.061a5.8,5.8,0,0,0,2.7-.546c-.327-2.7.751-5.347,1.685-7.9.986-2.692,1.831-5.433,2.683-8.173.61-1.929,1.285-3.8,1.883-5.729q1.129-3.662,2.268-7.325c.33-1.074.662-2.136,1.041-3.2a49.927,49.927,0,0,1,2.829-6.3c.305-.577.61-1.148.861-1.746.305-.729.522-1.492.766-2.246a34.8,34.8,0,0,1,1.917-4.511c.021-.04.037-.076.058-.113.247,1.01.494,2.036.659,3.052a11.6,11.6,0,0,1,.052,3.772,12.437,12.437,0,0,0-.391,2.558,15.792,15.792,0,0,0,1,3.427,13.045,13.045,0,0,1,.342,2.625c.085,1.373.83,2.915.305,4.187-1.633,4.032-.842,8.585-1.773,12.819-.479,2.173-1.947,4.215-1.831,6.437q.122,2.365.415,4.719a4.49,4.49,0,0,0,.382,1.431,5.262,5.262,0,0,0,.418.684c-.134.052-.247.189-.345.479a1.883,1.883,0,0,0,.677,2.136,2.966,2.966,0,0,0,.882.305,4.646,4.646,0,0,0,1.276.177,2.972,2.972,0,0,0,.4-.049,14.549,14.549,0,0,0,1.444.519,3.134,3.134,0,0,0,.04.375.467.467,0,0,0,.159.345.476.476,0,0,0,.244.043h1.657v-.415a1.364,1.364,0,0,0,1.053-.342,1.63,1.63,0,0,0,.305-.635q.677-2.3,1.346-4.6a14.7,14.7,0,0,0,.656-5.25c-.589-5.625.705-11.268.284-16.908a40.5,40.5,0,0,1,.519-10.145c.137-.757.305-1.526.366-2.28.134-1.422-.03-2.86.07-4.273.034-.494.1-.986.162-1.477a70.934,70.934,0,0,0,.656-9.2,28.965,28.965,0,0,0-.189-3.052,1.743,1.743,0,0,0,.833-.488,2.076,2.076,0,0,0,.2-1.3,9.447,9.447,0,0,1,.821-3.119,37.092,37.092,0,0,0,1.154-4.291,14.982,14.982,0,0,0,.513-3.586q0-.183-.018-.366a.946.946,0,0,0,.281-.305,1.772,1.772,0,0,0,.146-.565c.11-.778.223-1.56.333-2.341q.122-.839.241-1.676l.971-6.773c.082-.589.168-1.175.25-1.761l.253-1.752c.027-.208.058-.415.079-.61C832.573,496.122,831.862,494.461,831.783,493.045Zm-8.1,25.357a5.579,5.579,0,0,1-.61-2.652h-.034a1.361,1.361,0,0,0-.04-.861c-.095-.223-.259-.412-.36-.635a2.327,2.327,0,0,1-.165-.855,23.3,23.3,0,0,1,.437-5.536c.04-.214.082-.43.122-.644a1.593,1.593,0,0,0,.348-.272,2.474,2.474,0,0,0,.394-.61c.345-.693.659-1.4.949-2.115.095-.232.232-.5.467-.559-.049,1.785.134,3.608-.592,5.219a3.3,3.3,0,0,0-.305.824c-.067.455.122.916.055,1.367-.034.235-.134.452-.174.684a.668.668,0,0,0,.177.647.533.533,0,0,0,.131.067c-.018.122-.034.247-.046.366-.024.25-.037.485-.052.632a19.671,19.671,0,0,0-.082,2.246c0,.809.031,1.618.018,2.442a1.66,1.66,0,0,1-.116.693,1.2,1.2,0,0,1-.232.305A7.906,7.906,0,0,0,823.686,518.4Z" transform="translate(-550.882 -339.203)" fill="url(#linear-gradient)"/>
    <ellipse id="Ellipse_25" data-name="Ellipse 25" cx="1.721" cy="4.874" rx="1.721" ry="4.874" transform="matrix(0.98, -0.201, 0.201, 0.98, 245.07, 134.58)" fill="#fbbebe"/>
    <path id="Path_125" data-name="Path 125" d="M878.184,836.949a1.848,1.848,0,0,0,.678,2.115,3.018,3.018,0,0,0,.876.305,4.62,4.62,0,0,0,1.273.174c.528-.024,1.035-.232,1.563-.305a.244.244,0,0,1,.18.024.26.26,0,0,1,.067.214,8.067,8.067,0,0,0,.067.9.461.461,0,0,0,.159.345.476.476,0,0,0,.244.043h1.654a16.132,16.132,0,0,0-.473-4.316.965.965,0,0,0-.122-.305,1.01,1.01,0,0,0-.528-.305,2.952,2.952,0,0,0-1.279-.223,3.747,3.747,0,0,0-1.435.7,2.185,2.185,0,0,1-1.627.394C878.928,836.561,878.468,836.1,878.184,836.949Z" transform="translate(-615.251 -595.064)" fill="#3f3d56"/>
    <path id="Path_126" data-name="Path 126" d="M794.156,834.182a4.576,4.576,0,0,1-1.669,1.135l-.281.134a.2.2,0,0,0-.095.076.165.165,0,0,0,.031.137,1.975,1.975,0,0,0,2.24.815,1.187,1.187,0,0,0,.491-.256,1.612,1.612,0,0,0,.378-.983,2.012,2.012,0,0,0-.046-1.126C794.781,833.159,794.626,833.593,794.156,834.182Z" transform="translate(-555.511 -593.637)" fill="#fbbebe"/>
    <path id="Path_127" data-name="Path 127" d="M796.243,838.343a.742.742,0,0,1-.052.339c-.143.281-.543.266-.855.2a20.548,20.548,0,0,0-.375-3.083c-.592-.027-1.019.534-1.337,1.038l-.818,1.3a1.692,1.692,0,0,1-.488.568,1.447,1.447,0,0,1-.528.168,10.007,10.007,0,0,1-4.648-.72,2.462,2.462,0,0,1-.632-.269,1.291,1.291,0,0,1-.305-1.764c.632-.855,2.051-.61,2.838-1.318a7.11,7.11,0,0,1-.4,1.456c1.053-.159,1.761-1.123,2.609-1.767a1.606,1.606,0,0,1,.745-.354,1.641,1.641,0,0,1,.61.064,7.162,7.162,0,0,1,2.686,1.322,2.9,2.9,0,0,1,.961,1A7.411,7.411,0,0,1,796.243,838.343Z" transform="translate(-551.256 -594.038)" fill="#3f3d56"/>
    <circle id="Ellipse_26" data-name="Ellipse 26" cx="6.306" cy="6.306" r="6.306" transform="translate(259.677 130.994)" fill="#fbbebe"/>
    <path id="Path_128" data-name="Path 128" d="M914.206,614.786a14.953,14.953,0,0,1-.51,3.568,36.8,36.8,0,0,1-1.154,4.273,9.4,9.4,0,0,0-.815,3.113,2.07,2.07,0,0,1-.2,1.3,1.9,1.9,0,0,1-.891.51,1.114,1.114,0,0,0-.751.668,4.714,4.714,0,0,1-.635-1.4q-.821-2.515-1.526-5.057a.656.656,0,0,1,.043-.61.757.757,0,0,1,.266-.15,2.747,2.747,0,0,0,.845-.543,1.238,1.238,0,0,0,.281-.363,1.646,1.646,0,0,0,.119-.69c0-.809,0-1.615-.021-2.423a20.247,20.247,0,0,1,.085-2.237c0-.146.027-.382.052-.632.046-.479.137-1.035.4-1.221.388-.259,1.547.089,1.987.15.757.1,1.526.226,2.265.369A6.045,6.045,0,0,1,914.206,614.786Z" transform="translate(-635.802 -440.257)" fill="#3f3d56"/>
    <path id="Path_129" data-name="Path 129" d="M829.95,506.08c-.244.488-.83.723-1.282,1.032l-1.547,1.062a1.032,1.032,0,0,1-.766.262,1.007,1.007,0,0,1-.571-.534.105.105,0,0,0,0-.024l-.32-.537-1.526-2.558a1.456,1.456,0,0,1-.284-.787c0-.131.046-.253.058-.385a1.846,1.846,0,0,0-.305-1.038c-.122-.229-.366-.418-.36-.675a2.441,2.441,0,0,1,.171-.986,2,2,0,0,1,.668-.714c.143-.1.29-.2.443-.305a.872.872,0,0,1,.266-.122c.253-.052.5.159.76.168,1.1.739,1.526,2.136,2.393,3.144.488.574.537,1.013,1.09,1.526.089.079.174.165.256.253a1.773,1.773,0,0,1,.275.4C829.468,505.521,830.076,505.83,829.95,506.08Z" transform="translate(-577.007 -361.721)" fill="#3f3d56"/>
    <path id="Path_130" data-name="Path 130" d="M874.659,507.436a5.682,5.682,0,0,1,.678,3.073,1.919,1.919,0,0,1-.266.809,2.614,2.614,0,0,1-2.164.836,1.276,1.276,0,0,0-.94.305.855.855,0,0,0,.058,1.044,2.357,2.357,0,0,0,.934.61,8.268,8.268,0,0,0,4.02.891c.641-.061,1.264-.247,1.9-.342a19.962,19.962,0,0,1,2.094-.116c.83-.031,1.657-.113,2.484-.2l2.191-.217a.488.488,0,0,0,.327-.119c.162-.189-.046-.467-.247-.61-1.163-.861-2.643-1.453-3.305-2.747a16.155,16.155,0,0,1-.626-2,16.762,16.762,0,0,1-.726-1.926,12.763,12.763,0,0,1-.1-1.776,2.384,2.384,0,0,0-.61-1.624,2.545,2.545,0,0,0-1.66-.534,5.375,5.375,0,0,0-4.047,1.312c-.278.278-.516.61-.8.861s-.678.324-.488.653.562.534.763.824a7.024,7.024,0,0,1,.534.983Z" transform="translate(-610.893 -363.828)" fill="#fbbebe"/>
    <path id="Path_131" data-name="Path 131" d="M872.048,529.229a34.677,34.677,0,0,1-1.868,6.876,25.9,25.9,0,0,0-1.1,3.083c-.235.946-.189,1.959-.406,2.909-.269,1.181-.537,2.365-.754,3.556a23.318,23.318,0,0,0-.433,5.524,2.308,2.308,0,0,0,.165.852c.1.22.262.409.357.635a1.526,1.526,0,0,1-.085,1.221,3.534,3.534,0,0,1-.629.952c-2.844.849-5.887.571-8.851.751-2.732.165-5.494.726-8.186.259a6.489,6.489,0,0,1,.641-3.69c1.267-3.458,2.668-7.059,2.442-10.682a11.065,11.065,0,0,0-.143-1.261,16.71,16.71,0,0,1,.812-7.713,13.236,13.236,0,0,0,.348-4.816,8.8,8.8,0,0,1-.021-1.578,2.774,2.774,0,0,1,.574-1.474c0-.021.027-.043.043-.064a.418.418,0,0,1,.229,0h0a.2.2,0,0,0,.153,0l.034-.021a.076.076,0,0,1,.089,0c.07.043.11.189.263.217a6.084,6.084,0,0,0,.681.064,3.663,3.663,0,0,1,.812.116h.037a2.384,2.384,0,0,0,1.184-.1,3.148,3.148,0,0,0,.726-.281c.067-.073.488-.14.574-.192.278-.168.217-.955.275-1.279a3.517,3.517,0,0,1,.229-.946,1.611,1.611,0,0,1,1.306-.76,6.951,6.951,0,0,1,1.566.14c1.138.162,2.3.134,3.421.4a2.548,2.548,0,0,0,1.691.073c.14.034.162.156.162.305a1.951,1.951,0,0,1-.085.418c-.2.842.467,1.618,1.077,2.228a3.456,3.456,0,0,0,.9.717c.305.14.61.2.916.351a1.666,1.666,0,0,1,.61.559,2.331,2.331,0,0,1,.348.888A5.313,5.313,0,0,1,872.048,529.229Z" transform="translate(-595.85 -376.743)" fill="#3f3d56"/>
    <path id="Path_132" data-name="Path 132" d="M878.586,536.4a34.678,34.678,0,0,1-1.868,6.876,25.888,25.888,0,0,0-1.1,3.083c-.235.946-.189,1.959-.406,2.909-.269,1.181-.537,2.365-.754,3.556-.064.037-.131.07-.2.1a4.684,4.684,0,0,1-1.2.385,7.326,7.326,0,0,1-2.234-.073l-4.355-.583c-1.74-.235-3.592-.519-4.883-1.7a10.42,10.42,0,0,1-1.7-2.326,11.078,11.078,0,0,0-.143-1.26,16.709,16.709,0,0,1,.812-7.713,13.235,13.235,0,0,0,.348-4.816,8.792,8.792,0,0,1-.021-1.578,2.774,2.774,0,0,1,.574-1.474,2.178,2.178,0,0,1,.272-.061h0a1.347,1.347,0,0,1,.186-.024H862a1.332,1.332,0,0,1,.305.037,5.537,5.537,0,0,1,.61.235h.037a2.337,2.337,0,0,0,.812.116c.4,0,.818-.064,1.221-.092a2.252,2.252,0,0,1,1.447.259,8.673,8.673,0,0,1,.806.736,3.459,3.459,0,0,0,1.016.552,10.8,10.8,0,0,0,8.125-.171,1.59,1.59,0,0,1,.815-.208,1.526,1.526,0,0,1,.586.25c.183.107.363.211.549.305a2.331,2.331,0,0,1,.348.888A5.311,5.311,0,0,1,878.586,536.4Z" transform="translate(-602.389 -383.911)" opacity="0.1"/>
    <path id="Path_133" data-name="Path 133" d="M875.244,533.043a16.288,16.288,0,0,1-3.479-1.526,1.56,1.56,0,0,0-.586-.25,1.639,1.639,0,0,0-.818.208,10.8,10.8,0,0,1-8.122.171,3.531,3.531,0,0,1-1.016-.552,9.118,9.118,0,0,0-.806-.736c-1-.65-2.393.113-3.516-.305a6.222,6.222,0,0,0-.61-.235c-.888-.223-1.792.662-2.664.394a14.851,14.851,0,0,0-.717,2.722,29.678,29.678,0,0,0-.2,3.211c0,.644-.031,1.288,0,1.932a.634.634,0,0,1,.482,1,25.015,25.015,0,0,1-2.252,4.764,10.356,10.356,0,0,1,1.886,1.441c1.068,1.129,1.593,2.713,2.747,3.757,1.3,1.175,3.153,1.462,4.883,1.694l4.355.583a7.444,7.444,0,0,0,2.237.076,4.707,4.707,0,0,0,1.193-.388,2.136,2.136,0,0,0,.665-.44,2.443,2.443,0,0,0,.394-.61c.345-.69.659-1.395.949-2.109.1-.253.253-.549.528-.571,1.618-1.459,3.144-2.954,4.761-4.413a10.55,10.55,0,0,0,1.737-1.831c.8-1.187.073-2.869,0-4.3a5.427,5.427,0,0,0-.137-1.09A3.5,3.5,0,0,0,875.244,533.043Z" transform="translate(-596.388 -382.577)" fill="#061658"/>
    <path id="Path_134" data-name="Path 134" d="M836.181,517.561c-.244.488-.83.723-1.282,1.032l-1.547,1.062a1.032,1.032,0,0,1-.766.262,1.007,1.007,0,0,1-.571-.534v-.22a2.048,2.048,0,0,1,.1-.729,2.273,2.273,0,0,1,.684-.879,5.6,5.6,0,0,1,2.005-1.221.687.687,0,0,1,.366-.037.482.482,0,0,1,.134.058,1.773,1.773,0,0,1,.275.4C835.7,517,836.306,517.31,836.181,517.561Z" transform="translate(-583.237 -373.202)" opacity="0.1"/>
    <path id="Path_135" data-name="Path 135" d="M840.686,521.227a2.223,2.223,0,0,1-1.322-.757l-1.157-1.074a1.082,1.082,0,0,1-.2-.226,1.586,1.586,0,0,1-.14-.375,4.307,4.307,0,0,0-1.123-1.612.732.732,0,0,0-.333-.238.669.669,0,0,0-.369.037,5.583,5.583,0,0,0-2.005,1.221,2.28,2.28,0,0,0-.684.879,2.028,2.028,0,0,0-.1.729,5.6,5.6,0,0,0,.531,2.332c.052.113.11.226.171.336a10.57,10.57,0,0,0,1.434,1.865l.726.812c.714.8,1.428,1.6,2.2,2.335a2.911,2.911,0,0,0,.989.69,1.1,1.1,0,0,0,1.135-.183,1.641,1.641,0,0,0,.324-.58,11.414,11.414,0,0,0,.943-3.806,14.352,14.352,0,0,0-.067-1.578C841.6,521.477,841.2,521.26,840.686,521.227Z" transform="translate(-584.098 -373.651)" fill="#061658"/>
    <path id="Path_136" data-name="Path 136" d="M834.807,638.983a70.515,70.515,0,0,1-.653,9.178c-.061.491-.128.983-.162,1.474-.1,1.425.064,2.857-.07,4.273-.07.766-.229,1.526-.363,2.274a40.435,40.435,0,0,0-.519,10.118c.421,5.625-.87,11.253-.284,16.863a13.631,13.631,0,0,1-.18,3.263,13.839,13.839,0,0,1-.473,1.972q-.668,2.292-1.343,4.578a1.587,1.587,0,0,1-.305.635,1.447,1.447,0,0,1-1.144.339,13.2,13.2,0,0,1-5.018-1.557,1.749,1.749,0,0,1-.5-.305c-.333-.345-.305-.888-.452-1.343a12.779,12.779,0,0,0-.769-1.349,4.4,4.4,0,0,1-.333-1.389q-.305-2.344-.415-4.706c-.116-2.216,1.349-4.255,1.831-6.409.916-4.236.14-8.778,1.767-12.8.513-1.27-.232-2.808-.305-4.175a13.239,13.239,0,0,0-.342-2.619,16.236,16.236,0,0,1-.995-3.418,12.559,12.559,0,0,1,.388-2.548,11.455,11.455,0,0,0-.052-3.763c-.162-1.025-.409-2.051-.656-3.052l-.055.113a34.485,34.485,0,0,0-1.914,4.5c-.244.748-.458,1.511-.763,2.237-.25.61-.559,1.169-.861,1.743a50.058,50.058,0,0,0-2.823,6.272c-.378,1.056-.711,2.136-1.041,3.2l-2.262,7.325c-.61,1.926-1.279,3.788-1.877,5.71-.845,2.747-1.691,5.469-2.674,8.155-.916,2.548-2.005,5.189-1.679,7.88a5.8,5.8,0,0,1-2.695.546,15.779,15.779,0,0,1-4.578-1.111,3.558,3.558,0,0,1-1.581-.94c-.678-.827-.51-2.039-.305-3.092a7.469,7.469,0,0,1,.366-1.392c.232-.562.61-1.059.849-1.615a13.543,13.543,0,0,0,.7-3.427,4.229,4.229,0,0,1,1.6-3.006,43.412,43.412,0,0,1,1.465-6.025c.348-1.5.464-3.052.739-4.578a10.055,10.055,0,0,1,1.639-4.288,6.8,6.8,0,0,1,.83-3.662,4,4,0,0,0,.363-.778,4.473,4.473,0,0,0,.1-.806,4.764,4.764,0,0,1,1.288-2.829,5.74,5.74,0,0,1,.5-3.357,11.665,11.665,0,0,0,.641-4.294,3.763,3.763,0,0,1,.058-1.221c.085-.305.253-.565.351-.858a4.878,4.878,0,0,0,.137-1.1,12.675,12.675,0,0,1,1.526-4.682c.44-.861.067-2.03.159-2.988a11.55,11.55,0,0,1,1.123-4.63c.146-.263.305-.513.436-.784a3.4,3.4,0,0,0,.253-1.221,4.5,4.5,0,0,0-.125-1.929,9.89,9.89,0,0,1,5.985-1.831,37.311,37.311,0,0,0,6.351-.351c.61-.137,1.221-.327,1.865-.418a12.065,12.065,0,0,1,4.389.449,5.228,5.228,0,0,0,.61,2.646A28.406,28.406,0,0,1,834.807,638.983Z" transform="translate(-559.723 -448.678)" fill="#33313f"/>
    <path id="Path_137" data-name="Path 137" d="M885.058,673.29l-3.507,7.887c-.162-1.026-.409-2.051-.656-3.052l-.055.113v-.165l1.911-4.2Z" transform="translate(-617.162 -482.286)" opacity="0.1"/>
    <path id="Path_138" data-name="Path 138" d="M918.084,614.786a1.318,1.318,0,0,1-.7.259,3.384,3.384,0,0,1-1.141-.156L913.5,614.2a1.353,1.353,0,0,1-.25-.088c.046-.479.137-1.035.4-1.221.388-.259,1.547.089,1.987.15.757.1,1.526.226,2.265.369A6.043,6.043,0,0,1,918.084,614.786Z" transform="translate(-639.68 -440.257)" opacity="0.1"/>
    <path id="Path_139" data-name="Path 139" d="M919.759,557.592c.058.253.14.5.189.76a5.8,5.8,0,0,1-.064,1.889l-.25,1.746-.25,1.755-.967,6.754-.238,1.673-.336,2.335a1.678,1.678,0,0,1-.146.562,1.169,1.169,0,0,1-.955.565,3.462,3.462,0,0,1-1.142-.156l-2.747-.69a.86.86,0,0,1-.336-.137.662.662,0,0,1-.177-.644c.04-.232.14-.449.174-.681.067-.452-.122-.916-.055-1.364a3.393,3.393,0,0,1,.305-.821c.916-2.023.385-4.386.7-6.583a9.98,9.98,0,0,1,2.118-4.712,13.524,13.524,0,0,1,2.338-2.3,4.7,4.7,0,0,1,1.315-.916C919.783,556.515,919.667,557.207,919.759,557.592Z" transform="translate(-639.032 -401.223)" fill="#061658"/>
    <path id="Path_140" data-name="Path 140" d="M862.108,470.143c-.2.641.113,1.346-.031,2-.156.72-.833,1.221-1.025,1.944-.305,1.1.629,2.106,1.312,3.022,2.533,3.4,2.2,8.106,1.334,12.254a63.279,63.279,0,0,1-2.884,9.767,7.484,7.484,0,0,1-1.554,2.725,8.033,8.033,0,0,1,4.3-.418c1.782.494,3.321,2.225,5.128,1.831,1.087-.241,1.85-1.206,2.826-1.74,1.831-.986,4.038-.366,6.08-.049a2.387,2.387,0,0,0,1.328-.067,2.207,2.207,0,0,0,.806-.742,7.527,7.527,0,0,0,1.569-4.059,5.207,5.207,0,0,0-1.5-4.007,8.573,8.573,0,0,1-1.285-1.221,3.79,3.79,0,0,1-.5-1.85c-.241-3.357.577-6.785-.266-10.032a24.759,24.759,0,0,1-.937-3.449c-.168-1.474.232-3.052-.354-4.4a4.316,4.316,0,0,0-2.573-2.222,14.093,14.093,0,0,0-3.43-.61C868.779,468.678,862.807,467.961,862.108,470.143Z" transform="translate(-602.169 -340.065)" fill="#33313f"/>
    <g id="Group_11" data-name="Group 11" transform="translate(257.091 129.379)" opacity="0.1">
      <path id="Path_141" data-name="Path 141" d="M867.269,499.691a63.147,63.147,0,0,1-2.869,9.727c.211-.418.388-.858.556-1.294a62.948,62.948,0,0,0,2.884-9.767c.87-4.151,1.2-8.851-1.331-12.254-.61-.812-1.395-1.691-1.367-2.643a3.252,3.252,0,0,0-.519.958c-.305,1.1.629,2.106,1.312,3.022C868.468,490.837,868.136,495.543,867.269,499.691Z" transform="translate(-862.831 -479.773)"/>
      <path id="Path_142" data-name="Path 142" d="M868.427,473.77a2.97,2.97,0,0,0,.537-1.029,5.235,5.235,0,0,0-.037-1.361,1.468,1.468,0,0,0-.507.7A6.035,6.035,0,0,0,868.427,473.77Z" transform="translate(-865.574 -471.38)"/>
      <path id="Path_143" data-name="Path 143" d="M880.3,566.851a2.2,2.2,0,0,1-.806.739,2.332,2.332,0,0,1-1.328.067c-2.042-.305-4.273-.934-6.08.052-.98.531-1.74,1.5-2.829,1.74-1.8.4-3.342-1.328-5.124-1.831a7.155,7.155,0,0,0-3.867.305,5.334,5.334,0,0,1-1.01,1.459,8.034,8.034,0,0,1,4.3-.418c1.782.494,3.321,2.225,5.128,1.831,1.087-.241,1.85-1.206,2.826-1.74,1.831-.986,4.038-.366,6.08-.049a2.387,2.387,0,0,0,1.328-.067,2.207,2.207,0,0,0,.806-.742,8.2,8.2,0,0,0,1.264-2.417A8.878,8.878,0,0,1,880.3,566.851Z" transform="translate(-859.26 -536.968)"/>
    </g>
  </g>
</svg>
