<svg xmlns="http://www.w3.org/2000/svg" width="187" height="34" viewBox="0 0 187 34">
  <g id="Logo" transform="translate(-62 -67)">
    <text id="ManaOrder." transform="translate(62 93)" fill="#061658" font-size="26" font-family="DMSans-Bold, DM Sans" font-weight="700"><tspan x="0" y="0">ManaOrder.</tspan></text>
    <g id="Group_7" data-name="Group 7" transform="translate(138.98 -11.071)">
      <g id="Group_5" data-name="Group 5" transform="translate(83.369 85.904)">
        <path id="MO" d="M3.768-1.867V-18.2H7.315l3.408,5.873L14.061-18.2h3.547V-1.867H14.621v-11.27L11.866-8.688H9.51L6.755-13.137v11.27Z" transform="translate(-3.768 18.2)" fill="#061658" stroke="rgba(0,0,0,0)" stroke-width="1"/>
        <line id="Line_1" data-name="Line 1" x2="5.384" transform="translate(4.246 10.5)" fill="none" stroke="#061658" stroke-width="1"/>
        <line id="Line_2" data-name="Line 2" x2="5.384" transform="translate(4.246 12.294)" fill="none" stroke="#061658" stroke-width="1"/>
        <line id="Line_3" data-name="Line 3" x2="5.384" transform="translate(4.246 14.089)" fill="none" stroke="#061658" stroke-width="1"/>
        <line id="Line_4" data-name="Line 4" x2="5.384" transform="translate(4.246 15.884)" fill="none" stroke="#061658" stroke-width="1"/>
      </g>
      <path id="Path_69" data-name="Path 69" d="M21.2,13.488a25.126,25.126,0,0,1-10.471-2.033A16.905,16.905,0,0,1,3.709,5.819,14.1,14.1,0,0,1,1.17-2.512a14.1,14.1,0,0,1,2.539-8.331,16.905,16.905,0,0,1,7.019-5.635A25.126,25.126,0,0,1,21.2-18.512a25.175,25.175,0,0,1,10.442,2.033,16.668,16.668,0,0,1,7.019,5.635A14.208,14.208,0,0,1,41.17-2.512a14.208,14.208,0,0,1-2.511,8.331,16.668,16.668,0,0,1-7.019,5.635A25.175,25.175,0,0,1,21.2,13.488Zm0-5.083q5.706,0,9.1-2.917a9.993,9.993,0,0,0,3.4-8,9.993,9.993,0,0,0-3.4-8q-3.4-2.917-9.1-2.917t-9.13,2.917a9.954,9.954,0,0,0-3.424,8,9.954,9.954,0,0,0,3.424,8Q15.492,8.405,21.2,8.405Z" transform="translate(68.85 96.583)" fill="#061658"/>
    </g>
  </g>
</svg>
