<svg xmlns="http://www.w3.org/2000/svg" width="56.281" height="39.395" viewBox="0 0 56.281 39.395">
  <path id="Icon_awesome-box-open" data-name="Icon awesome-box-open" d="M37.434,21.948a4.262,4.262,0,0,1-3.64-2.058l-5.654-9.374L22.494,19.89a4.277,4.277,0,0,1-3.649,2.066,4.044,4.044,0,0,1-1.17-.167L5.628,18.342V33.994A2.8,2.8,0,0,0,7.756,36.72l19.011,4.757a5.716,5.716,0,0,0,2.726,0L48.522,36.72a2.82,2.82,0,0,0,2.128-2.726V18.342L38.6,21.781A4.044,4.044,0,0,1,37.434,21.948Zm18.695-9.866L51.6,3.042a1.436,1.436,0,0,0-1.468-.783L28.139,5.065,36.2,18.439a1.445,1.445,0,0,0,1.627.642l17.4-4.968a1.448,1.448,0,0,0,.9-2.031ZM4.679,3.042.15,12.082A1.434,1.434,0,0,0,1.038,14.1l17.4,4.968a1.445,1.445,0,0,0,1.627-.642L28.139,5.065l-22-2.805a1.437,1.437,0,0,0-1.46.783Z" transform="translate(0.003 -2.247)" fill="#061658"/>
</svg>
