<svg xmlns="http://www.w3.org/2000/svg" width="55.224" height="44.179" viewBox="0 0 55.224 44.179">
  <path id="Icon_awesome-user-shield" data-name="Icon awesome-user-shield" d="M53.7,23.393l-9.94-3.883a2.674,2.674,0,0,0-1.916,0L31.9,23.393a2.333,2.333,0,0,0-1.527,2.149c0,9.63,5.928,16.291,11.468,18.457a2.677,2.677,0,0,0,1.916,0c4.427-1.726,11.468-7.714,11.468-18.457A2.333,2.333,0,0,0,53.7,23.393ZM42.8,39.9V23.583L51.039,26.8A15.435,15.435,0,0,1,42.8,39.9ZM19.329,22.09A11.045,11.045,0,1,0,8.284,11.045,11.044,11.044,0,0,0,19.329,22.09Zm8.284,3.452a4.9,4.9,0,0,1,.095-.621c-.216-.009-.423-.069-.647-.069H25.619a15.021,15.021,0,0,1-12.581,0H11.6A11.6,11.6,0,0,0,0,36.448v3.59a4.143,4.143,0,0,0,4.142,4.142H34.515a4.247,4.247,0,0,0,1.657-.345A23.184,23.184,0,0,1,27.612,25.541Z" fill="#061658"/>
</svg>
